<svg width="1200" height="900" viewBox="0 0 1200 900" xmlns="http://www.w3.org/2000/svg"><defs><linearGradient id="g" x1="0" x2="1" y1="0" y2="1"><stop stop-color="#fffaf2"/><stop offset="1" stop-color="#eadac4"/></linearGradient><filter id="s"><feDropShadow dx="0" dy="24" stdDeviation="30" flood-color="#1e1a16" flood-opacity=".12"/></filter></defs><rect width="1200" height="900" fill="url(#g)"/><g opacity=".35" fill="none" stroke="#c98f2c" stroke-width="4"><path d="M130 120h85l43 74-43 74h-85l-43-74zM230 290h85l43 74-43 74h-85l-43-74zM1000 140h85l43 74-43 74h-85l-43-74zM900 310h85l43 74-43 74h-85l-43-74z"/></g><g filter="url(#s)"><rect x="300" y="210" width="600" height="430" rx="54" fill="#fffaf2"/><path d="M430 385c90-125 236-125 326 0" fill="none" stroke="#c98f2c" stroke-width="24" stroke-linecap="round"/><circle cx="500" cy="400" r="55" fill="#edb6bf"/><circle cx="700" cy="400" r="55" fill="#edb6bf"/><path d="M480 500h240" stroke="#936420" stroke-width="18" stroke-linecap="round"/></g><text x="600" y="735" text-anchor="middle" font-family="Georgia" font-size="54" fill="#1e1a16">Handmade in Raleigh, NC</text></svg>
